<svg xmlns="http://www.w3.org/2000/svg" xmlns:xlink="http://www.w3.org/1999/xlink" fill="none" version="1.1" width="100" height="26" viewBox="0 0 100 26"><clipPath id="master_svg0_1_01"><rect x="0" y="0" width="100" height="26" rx="0"/></clipPath><g clip-path="url(#master_svg0_1_01)" style="mix-blend-mode:passthrough"><rect x="0" y="0" width="100" height="26" rx="0" fill="#FFFFFF" fill-opacity="0"/><g><g style="mix-blend-mode:passthrough"><path d="M5.54492,7.82275L7.29688,15.1416L10.10889,7.82275L11.918,7.82275L14.438,15.0019L16.0947,7.82275L19.8145,7.82275L17.0088,19.1978L13.0098,19.1978L10.84521,13.7578L8.801269999999999,19.1978L4.80225,19.1978L1.780762,7.82275L5.54492,7.82275ZM21.2808,7.82275L25.0449,7.82275L25.0449,10.26025L21.2808,10.26025L21.2808,7.82275ZM25.0449,19.1978L21.2808,19.1978L21.2808,11.32031L25.0449,11.32031L25.0449,19.1978ZM30.4404,19.1978L26.562,19.1978L26.562,7.82275L30.4404,7.82275L30.4404,19.1978ZM42.9961,7.82275L42.9961,19.1978L31.8433,19.1978L31.8433,11.479L39.2319,11.479L38.1592,12.6978L35.6074,12.6978L35.6074,17.979L39.2319,17.979L39.2319,11.27588L39.2319,7.82275L42.9961,7.82275ZM58.186,9.44775L58.186,12.6978L63.4863,12.6978L62.1216,14.3228L54.2251,14.3228L54.2251,7.82275L67.936,7.82275L67.1934,9.44775L58.186,9.44775ZM67.4663,19.1978L54.187,19.1978L54.187,17.5728L63.4863,17.5728L63.4863,12.6978L67.4663,12.6978L67.4663,19.1978ZM73.4268,17.979L76.937,17.979L76.937,11.479L80.7012,11.479L80.7012,19.1978L69.6245,19.1978L69.6245,11.479L76.937,11.479L75.7881,12.6978L73.4268,12.6978L73.4268,17.979ZM85.9253,17.5728L89.5498,17.5728L88.6548,19.1978L82.2183,19.1978L82.2183,11.07275L85.9253,11.07275L85.9253,17.5728ZM93.314,19.1978L89.5498,19.1978L89.5498,17.725099999999998L89.5498,11.07275L93.314,11.07275L93.314,19.1978ZM98.6904,19.1978L94.812,19.1978L94.812,7.82275L98.6904,7.82275L98.6904,19.1978Z" fill="#65A2E5" fill-opacity="1"/></g></g></g></svg>